<?xml version="1.0" encoding="UTF-8" standalone="no"?>
<!DOCTYPE svg PUBLIC "-//W3C//DTD SVG 1.1//EN" "http://www.w3.org/Graphics/SVG/1.1/DTD/svg11.dtd">
<svg width="100%" height="100%" viewBox="0 0 465 473" version="1.1" xmlns="http://www.w3.org/2000/svg" xmlns:xlink="http://www.w3.org/1999/xlink" xml:space="preserve" xmlns:serif="http://www.serif.com/" style="fill-rule:evenodd;clip-rule:evenodd;stroke-linejoin:round;stroke-miterlimit:2;">
    <g transform="matrix(1,0,0,1,-1185.5002,-352.524436)">
        <g transform="matrix(1.122147,0,0,1.122147,1014.476793,-604.307199)">
            <text x="226.182px" y="1273.145px" style="font-family:'Helvetica-Bold', 'Helvetica';font-weight:700;font-size:50px;fill:rgb(43,147,197);">YOURSELF</text>
        </g>
        <g transform="matrix(0.47269,0,0,0.47269,1413.828433,494.158294)">
            <g transform="matrix(1,0,0,1,-278.027362,-299.633858)">
                <clipPath id="_clip1">
                    <rect x="0" y="0" width="556.055" height="599.268"/>
                </clipPath>
                <g clip-path="url(#_clip1)">
                    <g id="Camada_x0020_1" transform="matrix(0.174492,0,0,0.174492,0.000016,0)">
                        <path d="M1717.18,0C2340.21,0 2885.74,331.81 3186.71,828.35L2874.47,991.46C2632.82,606.91 2204.89,351.26 1717.19,351.26C962.81,351.26 351.28,962.79 351.28,1717.17C351.28,2471.55 962.81,3083.08 1717.19,3083.08C2202.24,3083.08 2628.2,2830.22 2870.55,2449.16C2957.18,2493.64 3061.5,2547.62 3183.57,2611.11C2881.95,3104.8 2338.08,3434.34 1717.19,3434.34C768.81,3434.34 0.01,2665.54 0.01,1717.16C0.01,768.78 768.81,-0.02 1717.19,-0.02L1717.18,0Z" style="fill:rgb(6,15,46);"/>
                        <path d="M2556.03,639.25C2681.52,737.07 2789.51,856.28 2874.45,991.46L2576.87,1146.91L2569.88,1153.2C2386.85,877.02 2073.31,694.87 1717.16,694.87C1152.55,694.87 694.86,1152.56 694.86,1717.17C694.86,2263.72 1123.76,2710.08 1663.35,2738.06L1669.26,2651.27L1667.17,1815.51C1735.41,1688.01 1833.95,1409.57 2170.93,1409.57C2170.93,1745.63 2025.5,1703.46 1917.17,1872.17C1682.28,2238 2041.36,2636.26 2099.3,2651.27C2119.69,2649.57 2138.65,2645.81 2156.47,2640.48C2207.71,2616.04 2256.61,2587.49 2302.71,2555.21C2322.8,2539.2 2342.35,2523.04 2362.3,2508.34C2376.12,2498.15 2389.28,2487.42 2401.88,2476.22C2407.44,2471.2 2412.94,2466.11 2418.39,2460.98C2470.06,2411.46 2512.33,2353.82 2552.99,2293.09C2555.45,2293.75 2557.94,2294.44 2560.43,2295.17L2560.44,2295.16L2560.55,2295.2C2628.4,2315 2706.43,2359.54 2774.99,2400.3L2777.81,2401.73L2780.2,2402.94L2784.93,2405.36L2791.99,2408.95L2792.16,2409.04L2799.5,2412.78L2804.08,2415.12L2806.95,2416.59L2814.51,2420.45L2816.47,2421.45L2822.18,2424.37L2829.15,2427.94L2829.96,2428.36L2837.85,2432.4L2842.13,2434.59L2845.85,2436.51L2853.97,2440.67L2855.4,2441.41L2862.19,2444.9L2868.98,2448.38L2870.53,2449.18C2628.18,2830.24 2202.22,3083.1 1717.17,3083.1C1696.85,3083.1 1676.66,3082.56 1656.56,3081.69L1636.15,3082.45C1486.84,3076.77 1344.91,3043.12 1213.76,2987.31C708.54,2786.89 351.27,2293.78 351.27,1717.2C351.27,978.4 937.83,376.7 1670.66,352.16L1672.16,352.11C1676.14,351.98 1680.11,351.81 1684.09,351.71C1996.83,340.1 2314.77,433.71 2556.03,639.28L2556.03,639.25Z" style="fill:rgb(43,147,197);"/>
                        <circle cx="1681.43" cy="1280.87" r="212.44" style="fill:rgb(43,147,197);"/>
                        <path d="M1663.55,2771.45L1663.55,1807.83C1581.4,1595.05 1453.22,1467.2 1278.99,1424.3C1239,1414.84 1202.01,1409.94 1168.03,1409.58C1155.51,1654.02 1328.04,1754.06 1334.51,1759.96C1494.16,1914.86 1539,2108.17 1469.04,2339.9C1424.66,2444.82 1357.4,2548.61 1267.27,2651.27C1328.72,2697.39 1415.03,2728.96 1526.22,2745.98C1617.77,2762.96 1663.55,2771.44 1663.55,2771.44L1663.55,2771.45Z" style="fill:rgb(10,14,29);"/>
                    </g>
                </g>
            </g>
        </g>
        <g transform="matrix(1.90571,0,0,1.90571,427.465062,-2010.51393)">
            <g transform="matrix(50,0,0,50,643.717659,1456.974666)">
            </g>
            <text x="395.475px" y="1456.975px" style="font-family:'Arial-Black', 'Arial Black', sans-serif;font-weight:900;font-size:50px;fill:rgb(43,147,197);">GR<tspan x="475.163px 515.959px 565.959px " y="1456.975px 1456.975px 1456.975px ">OWU</tspan>P</text>
        </g>
    </g>
</svg>
